<svg width="482" height="308" viewBox="0 0 482 308" fill="none" xmlns="http://www.w3.org/2000/svg">
<path d="M10.3049 136.896C12.7049 131.834 17.8074 128.924 23.0708 129.068C23.3205 127.358 23.8242 125.654 24.6031 124.009C28.8083 115.142 39.4028 111.364 48.2704 115.567C48.4206 115.639 48.5645 115.715 48.7127 115.792C48.7592 115.023 48.9476 114.251 49.2989 113.512C50.7634 110.422 54.4565 109.106 57.5464 110.571C57.6183 110.604 57.6861 110.64 57.7559 110.676C57.9337 109.771 58.2236 108.873 58.6384 108.001C61.3072 102.372 68.0351 99.9739 73.6625 102.643C74.1471 102.873 74.6085 103.136 75.0445 103.424C75.0762 103.352 75.1059 103.28 75.1397 103.21C77.8084 97.5803 84.5364 95.1825 90.1638 97.8512C92.7648 99.085 94.6738 101.184 95.715 103.642C98.3584 100.596 102.798 99.5464 106.621 101.358C109.461 102.704 111.291 105.314 111.766 108.196C113.054 108.393 114.337 108.776 115.575 109.362C119.85 111.39 122.593 115.345 123.255 119.696C124.038 119.908 124.815 120.187 125.575 120.547C129.211 122.272 131.738 125.391 132.821 128.962C133.727 128.953 134.705 129.171 135.579 129.586C138.669 131.051 140.04 134.769 138.576 137.859C138.576 137.861 138.576 137.861 138.574 137.863C142.855 142.985 144.093 150.426 141.009 156.927C138.931 161.31 135.264 164.434 131.043 165.981C127.573 173.219 119.816 177.031 112.261 175.846C104.928 184.794 91.6474 199.458 78.0857 206.808C74.09 214.505 64.6828 217.716 56.7824 213.97C56.4628 213.819 56.1538 213.654 55.8491 213.485C51.1994 218.202 44.1667 220.025 37.6864 217.904C32.6643 224.23 23.7798 226.507 16.1693 222.899C10.2266 220.08 6.57375 214.389 6.07429 208.272C3.47328 206.622 2.45108 203.252 3.80555 200.397C4.12935 199.716 4.56109 199.121 5.06902 198.624C1.11565 195.424 -0.295966 189.828 1.97913 185.028C2.03415 184.914 2.09129 184.804 2.14843 184.692C0.184446 182.906 -0.475857 179.981 0.722005 177.458C1.4458 175.932 2.7135 174.838 4.18226 174.301C2.76218 171.338 2.63943 167.784 4.15687 164.584C5.37589 162.013 7.44569 160.117 9.86681 159.069C9.77369 156.91 10.1864 154.699 11.1768 152.612C11.4012 152.138 11.653 151.685 11.9218 151.249C8.80863 147.289 8.00018 141.757 10.3049 136.896Z" fill="black"/>
<path d="M122.447 154.149C122.447 154.149 108.373 180.493 116.866 189.754C125.359 199.016 169.007 239.047 169.007 239.047L141.888 280.542C141.888 280.542 110.803 221.174 90.4858 213.921C70.1666 206.668 37.7693 207.815 37.7693 207.815L40.6962 201.642C40.6962 201.642 71.2544 205.291 71.2523 199.972C71.2502 194.654 56.4356 186.823 46.0654 183.784C45.9998 175.431 51.3161 164.783 51.3161 164.783C51.3161 164.783 76.5601 194.757 78.6765 186.901C80.7907 179.046 66.3317 156.887 66.3317 156.887L75.0681 154.855C75.0681 154.855 88.6869 192.963 96.6804 186.298C104.674 179.632 86.8456 157.219 86.0393 154.957C89.0276 152.616 98.5745 168.15 98.7523 160.984C98.928 153.821 97.9036 146.354 97.9036 146.354L112.303 144.86C112.303 144.86 102.809 168.277 107.068 169.49C111.324 170.703 117.632 150.608 117.632 150.608L122.447 154.149Z" fill="white"/>
<path d="M141.888 281.044C141.879 281.044 141.871 281.044 141.864 281.044C141.687 281.035 141.528 280.934 141.445 280.777C141.134 280.184 110.221 221.5 90.3161 214.395C70.3186 207.257 38.1075 208.306 37.7837 208.317C37.6102 208.334 37.4451 208.239 37.3477 208.093C37.2525 207.946 37.2398 207.76 37.3139 207.604L40.2408 201.43C40.3318 201.235 40.5371 201.121 40.7508 201.149C47.8893 202.002 67.1271 203.583 70.3673 200.706C70.6276 200.476 70.7482 200.243 70.7482 199.974C70.7461 195.301 57.1633 187.56 45.919 184.266C45.7074 184.205 45.5614 184.01 45.5592 183.79C45.4936 175.414 50.6427 165.001 50.8607 164.563C50.9369 164.413 51.0808 164.309 51.248 164.29C51.4152 164.271 51.5803 164.337 51.6882 164.464C57.3982 171.242 73.1524 188.63 77.3915 187.684C77.6433 187.627 77.9989 187.473 78.1872 186.772C80.2189 179.221 66.0499 157.38 65.906 157.16C65.8171 157.023 65.8001 156.851 65.8615 156.701C65.9229 156.551 66.0541 156.436 66.2128 156.4L74.9492 154.369C75.1947 154.311 75.4465 154.449 75.5333 154.686C75.6391 154.982 86.2273 184.385 93.8822 186.472C94.7964 186.719 95.6028 186.537 96.3541 185.913C102.475 180.81 92.0854 165.17 87.6495 158.491C86.3585 156.546 85.7299 155.592 85.5627 155.122C85.4908 154.919 85.5564 154.695 85.7257 154.561C87.44 153.215 90.187 155.901 93.0949 158.739C94.7922 160.396 97.1181 162.673 97.8588 162.366C98.0324 162.296 98.225 161.892 98.2461 160.97C98.4197 153.928 97.4123 146.494 97.4038 146.42C97.3848 146.286 97.4229 146.149 97.5054 146.043C97.59 145.935 97.7128 145.867 97.8461 145.854L112.246 144.36C112.419 144.345 112.591 144.417 112.697 144.557C112.802 144.697 112.826 144.883 112.76 145.046C110.551 150.496 105.162 165.344 106.737 168.567C106.894 168.889 107.076 168.971 107.198 169.007C109.962 169.805 114.766 158.045 117.149 150.455C117.198 150.301 117.317 150.18 117.471 150.13C117.624 150.079 117.793 150.106 117.922 150.201L122.741 153.742C122.942 153.888 123.003 154.161 122.885 154.379C122.745 154.639 109.073 180.518 117.232 189.413C125.613 198.554 168.905 238.274 169.341 238.674C169.521 238.839 169.555 239.112 169.422 239.315L142.302 280.811C142.214 280.959 142.055 281.044 141.888 281.044ZM42.5138 207.257C52.3147 207.257 75.11 207.904 90.6526 213.453C109.918 220.329 138.095 272.337 141.934 279.562L168.357 239.131C164.406 235.504 124.531 198.855 116.498 190.095C108.328 181.187 120.028 157.723 121.805 154.299L117.894 151.425C116.43 155.971 111.177 171.194 106.927 169.973C106.453 169.837 106.087 169.513 105.842 169.01C103.95 165.132 109.924 149.49 111.528 145.444L98.4599 146.798C98.6842 148.612 99.3953 154.944 99.2472 160.997C99.2366 161.469 99.2006 162.904 98.2377 163.295C96.9551 163.812 95.1838 162.176 92.3986 159.456C90.4981 157.6 87.9839 155.124 86.7225 155.213C87.0633 155.801 87.7341 156.813 88.4854 157.941C93.4589 165.427 103.806 181.005 96.9975 186.681C95.9922 187.519 94.8578 187.771 93.624 187.437C85.8993 185.331 76.1322 159.238 74.7481 155.442L67.1356 157.213C69.4805 160.889 81.1353 179.691 79.1586 187.033C78.8539 188.161 78.1512 188.542 77.6137 188.66C77.4613 188.694 77.2983 188.711 77.129 188.711C71.3429 188.713 55.0109 169.905 51.4321 165.7C50.302 168.136 46.6407 176.548 46.5645 183.414C57.2035 186.607 71.7492 194.349 71.7514 199.974C71.7514 200.533 71.5101 201.03 71.0339 201.453C67.0171 205.02 44.2683 202.558 40.9942 202.181L38.5689 207.297C39.3667 207.278 40.7255 207.257 42.5138 207.257Z" fill="black"/>
<path d="M83.7364 144.6C83.7957 143.878 83.984 143.154 84.3121 142.46C85.5903 139.764 88.5659 138.42 91.3553 139.097C91.4802 137.628 91.8654 136.158 92.5341 134.748C95.533 128.424 103.093 125.728 109.416 128.727C113.986 130.894 116.661 135.442 116.661 140.185C120.121 137.542 124.898 136.875 129.103 138.869C134.605 141.478 137.204 147.73 135.393 153.374C136.298 155.05 136.421 157.118 135.543 158.97C134.078 162.058 130.39 163.372 127.304 161.909C127.02 161.774 126.752 161.622 126.498 161.45C123.996 161.994 121.304 161.749 118.811 160.566C114.585 158.561 112.072 154.409 111.954 150.035C108.284 152.997 103.099 153.787 98.5509 151.63C97.0949 150.94 95.8314 150.005 94.7859 148.9C93.7151 150.284 92.1214 151.124 90.4305 151.273C90.3712 151.994 90.1828 152.718 89.8548 153.412C88.3903 156.498 84.7015 157.814 81.6158 156.352C78.5302 154.887 77.2138 151.199 78.6762 148.113C79.6539 146.054 81.62 144.784 83.7364 144.6Z" fill="black"/>
<path d="M129.945 163.004C128.987 163.004 128.013 162.796 127.092 162.36C126.858 162.248 126.625 162.121 126.402 161.981C123.749 162.515 121.057 162.183 118.602 161.019C114.61 159.126 111.96 155.338 111.518 150.989C107.675 153.658 102.602 154.102 98.3416 152.083C97.0337 151.463 95.8528 150.644 94.82 149.641C93.7914 150.758 92.3968 151.497 90.8878 151.723C90.7926 152.382 90.6 153.021 90.3121 153.628C89.5481 155.241 88.2 156.46 86.5175 157.061C84.835 157.66 83.0213 157.569 81.4065 156.805C79.7938 156.041 78.5748 154.693 77.9737 153.01C77.8806 152.75 78.0161 152.464 78.2764 152.371C78.5367 152.278 78.8224 152.413 78.9155 152.674C79.4256 154.104 80.4626 155.251 81.834 155.901C83.2054 156.551 84.7503 156.631 86.181 156.119C87.6117 155.609 88.7566 154.572 89.4085 153.201C89.7026 152.578 89.8825 151.918 89.9375 151.235C89.9566 150.991 90.1492 150.799 90.3926 150.777C91.9714 150.64 93.4317 149.846 94.3967 148.598C94.4856 148.483 94.6211 148.411 94.7671 148.405C94.9173 148.394 95.0549 148.456 95.1544 148.559C96.1914 149.654 97.4083 150.536 98.7712 151.182C102.972 153.173 108.026 152.572 111.645 149.649C111.793 149.531 111.996 149.505 112.168 149.584C112.341 149.664 112.454 149.834 112.458 150.024C112.576 154.384 115.095 158.252 119.029 160.117C121.344 161.215 123.892 161.507 126.394 160.963C126.527 160.936 126.665 160.961 126.779 161.038C127.016 161.196 127.266 161.338 127.52 161.459C130.354 162.8 133.751 161.59 135.094 158.758C135.213 158.508 135.509 158.403 135.761 158.521C136.011 158.64 136.117 158.938 135.998 159.188C134.853 161.592 132.449 163.004 129.945 163.004Z" fill="white"/>
<path d="M36.3854 192.889C37.9049 190.853 40.6964 190.1 43.0794 191.23C45.7968 192.519 46.9545 195.766 45.6656 198.483C45.3969 199.05 45.0413 199.547 44.6244 199.973C45.8709 202.995 45.8857 206.512 44.3746 209.698C41.5324 215.689 34.3727 218.243 28.3813 215.401C22.3899 212.559 19.8354 205.399 22.6777 199.408C25.1644 194.163 30.9611 191.554 36.3854 192.889Z" fill="black"/>
<path d="M33.7354 217.169C31.9068 217.169 30.0868 216.763 28.3852 215.957C24.9631 214.333 22.4848 211.288 21.5896 207.603C21.524 207.335 21.689 207.066 21.9578 207C22.2266 206.935 22.4954 207.1 22.561 207.368C23.3843 210.759 25.6636 213.561 28.8148 215.055C31.5915 216.371 34.7153 216.528 37.6105 215.495C40.5056 214.463 42.8252 212.363 44.1416 209.586C45.5299 206.66 45.6167 203.263 44.3807 200.266C44.3045 200.082 44.3468 199.868 44.4865 199.724C44.8759 199.328 45.1934 198.873 45.4325 198.372C46.3595 196.418 45.9214 194.114 44.3405 192.639C44.1394 192.45 44.1289 192.135 44.3172 191.932C44.5056 191.731 44.823 191.718 45.0241 191.908C46.9224 193.682 47.4494 196.45 46.3362 198.799C46.0971 199.303 45.7923 199.766 45.4241 200.183C46.641 203.366 46.5076 206.93 45.0452 210.014C43.6146 213.032 41.0919 215.313 37.9469 216.435C36.5734 216.926 35.1512 217.169 33.7354 217.169Z" fill="white"/>
<path d="M42.0381 164.373C40.9651 161.935 40.9143 159.065 42.144 156.468C44.1079 152.328 48.675 150.263 52.9586 151.302C53.1406 150.25 53.4623 149.205 53.9427 148.193C56.785 142.202 63.9446 139.647 69.936 142.489C75.9275 145.332 78.4819 152.491 75.6397 158.483C72.7974 164.474 65.6377 167.029 59.6463 164.186C59.604 164.167 59.5659 164.144 59.5235 164.125C59.4579 164.288 59.386 164.449 59.3098 164.61C57.9087 167.564 55.1808 169.463 52.1755 169.928C54.3173 173.295 54.7363 177.653 52.8993 181.524C50.057 187.515 42.8974 190.07 36.9059 187.227C30.9145 184.385 28.3601 177.225 31.2023 171.234C33.2531 166.912 37.5514 164.381 42.0381 164.373Z" fill="black"/>
<path d="M42.2519 188.455C40.4234 188.455 38.6033 188.049 36.9018 187.243C35.3759 186.519 34.0383 185.52 32.9251 184.269C32.741 184.064 32.76 183.746 32.9653 183.564C33.1706 183.38 33.4859 183.399 33.6701 183.605C34.6944 184.754 35.9261 185.674 37.3293 186.341C43.0625 189.058 49.9386 186.608 52.6581 180.874C54.3618 177.279 54.1036 173.124 51.9639 169.759C51.8729 169.618 51.8602 169.438 51.9301 169.285C51.9999 169.131 52.1417 169.023 52.3089 168.997C55.2633 168.538 57.7903 166.655 59.0685 163.958C59.1405 163.806 59.2061 163.654 59.2696 163.499C59.3225 163.372 59.4241 163.271 59.5532 163.222C59.6823 163.171 59.8262 163.177 59.949 163.239L60.0654 163.298C62.8441 164.617 65.9679 164.773 68.8631 163.74C71.7583 162.708 74.0778 160.61 75.3942 157.832C77.4238 153.55 76.5899 148.373 73.318 144.949C73.1276 144.75 73.1339 144.433 73.335 144.242C73.5339 144.05 73.8514 144.058 74.0418 144.259C77.5973 147.982 78.5031 153.607 76.2979 158.261C73.3963 164.377 66.1414 167.057 59.9828 164.361C59.9786 164.371 59.9744 164.38 59.9701 164.39C58.6537 167.165 56.148 169.165 53.1766 169.85C55.1533 173.389 55.3078 177.617 53.5597 181.306C52.129 184.324 49.6063 186.606 46.4614 187.727C45.0879 188.212 43.6678 188.455 42.2519 188.455Z" fill="white"/>
<path d="M28.0336 198.658C26.9395 200.963 27.9236 203.718 30.2283 204.81C32.533 205.902 35.2885 204.92 36.3806 202.615C37.4726 200.311 36.4906 197.555 34.1859 196.463C31.8812 195.371 29.1278 196.353 28.0336 198.658Z" fill="white"/>
<path d="M21.9261 187.339C21.2425 188.783 21.8563 190.505 23.2996 191.189C24.743 191.873 26.4657 191.259 27.1493 189.816C27.8329 188.372 27.2191 186.649 25.7758 185.966C24.3345 185.282 22.6097 185.896 21.9261 187.339Z" fill="white"/>
<path d="M125.186 140.903C124.18 143.021 125.084 145.552 127.203 146.558C129.321 147.563 131.852 146.659 132.857 144.541C133.863 142.422 132.959 139.891 130.841 138.886C128.722 137.881 126.189 138.784 125.186 140.903Z" fill="white"/>
<path d="M120.94 153.251C120.309 154.582 120.876 156.174 122.208 156.804C123.539 157.435 125.13 156.868 125.761 155.537C126.392 154.205 125.825 152.614 124.493 151.983C123.162 151.352 121.571 151.92 120.94 153.251Z" fill="white"/>
<path d="M170.009 267.228C175.985 254.627 174.696 241.504 167.131 237.916C159.565 234.329 148.588 241.635 142.613 254.237C136.637 266.838 137.926 279.961 145.491 283.549C153.056 287.136 164.033 279.829 170.009 267.228Z" fill="white"/>
<path d="M149.653 284.959C148.096 284.959 146.618 284.639 145.253 283.991C137.453 280.292 136.054 266.845 142.136 254.015C145.065 247.84 149.268 242.716 153.973 239.584C158.756 236.401 163.496 235.647 167.319 237.459C175.122 241.158 176.518 254.606 170.436 267.435C167.507 273.608 163.304 278.734 158.599 281.867C155.522 283.915 152.462 284.959 149.653 284.959ZM162.919 237.495C160.305 237.495 157.435 238.481 154.527 240.418C149.971 243.45 145.89 248.432 143.04 254.445C137.192 266.775 138.377 279.625 145.683 283.09C149.177 284.745 153.569 284.017 158.047 281.037C162.603 278.004 166.684 273.022 169.535 267.01C175.382 254.68 174.197 241.829 166.891 238.365C165.666 237.783 164.33 237.495 162.919 237.495Z" fill="black"/>
<path d="M151.185 281.226C150.146 281.226 149.164 281.015 148.267 280.589C145.475 279.266 143.808 276.06 143.573 271.563C143.342 267.176 144.502 262.05 146.834 257.129C148.495 253.625 150.648 250.469 153.056 247.999C153.249 247.8 153.566 247.798 153.763 247.991C153.96 248.183 153.964 248.501 153.772 248.698C151.437 251.089 149.35 254.152 147.736 257.557C145.471 262.331 144.347 267.286 144.57 271.51C144.785 275.624 146.25 278.526 148.694 279.685C150.978 280.767 153.943 280.212 157.048 278.119C157.276 277.965 157.587 278.024 157.742 278.255C157.896 278.483 157.835 278.794 157.606 278.949C155.369 280.456 153.17 281.226 151.185 281.226Z" fill="black"/>
<path d="M167.68 245.853C167.543 245.853 167.405 245.796 167.305 245.683C166.776 245.087 166.161 244.619 165.477 244.293C164.34 243.753 163.043 243.616 161.617 243.882C161.344 243.931 161.083 243.755 161.033 243.482C160.982 243.212 161.16 242.951 161.433 242.898C163.069 242.591 164.573 242.757 165.904 243.389C166.711 243.772 167.435 244.321 168.055 245.019C168.237 245.226 168.218 245.542 168.012 245.724C167.917 245.813 167.799 245.853 167.68 245.853Z" fill="black"/>
<path d="M92.9981 210.041C92.9557 210.356 92.9346 210.672 92.9346 210.989C92.9346 225.163 135.078 236.652 187.064 236.652C239.05 236.652 280.233 226.409 280.233 212.236C280.233 198.062 239.05 185.326 187.064 185.326C136.242 185.326 94.8266 196.306 92.9981 210.041Z" fill="white"/>
<path d="M187.064 237.15C161.877 237.15 138.193 234.475 120.373 229.615C102.356 224.703 92.4348 218.088 92.4348 210.987C92.4348 210.651 92.4581 210.31 92.5025 209.973C94.3819 195.872 135.918 184.825 187.066 184.825C211.937 184.825 235.454 187.722 253.287 192.985C270.986 198.209 280.734 205.044 280.734 212.234C280.734 219.277 270.98 225.671 253.27 230.24C235.998 234.697 212.486 237.15 187.064 237.15ZM187.064 185.826C162.567 185.826 139.384 188.38 121.785 193.015C104.397 197.595 94.3501 203.665 93.4909 210.105C93.4528 210.397 93.4316 210.695 93.4316 210.987C93.4316 217.499 103.347 223.939 120.633 228.65C138.37 233.486 161.962 236.149 187.062 236.149C212.401 236.149 235.825 233.706 253.016 229.273C270.243 224.828 279.731 218.778 279.731 212.234C279.731 205.622 269.987 198.956 252.999 193.944C235.26 188.708 211.842 185.826 187.064 185.826Z" fill="black"/>
<path d="M95.3071 220.091C95.3071 233.96 136.544 245.202 187.413 245.202C238.282 245.202 278.578 235.179 278.578 221.31C278.578 207.442 238.282 194.98 187.413 194.98C136.544 194.98 95.3071 206.223 95.3071 220.091Z" fill="white"/>
<path d="M187.413 245.701C162.768 245.701 139.59 243.083 122.153 238.328C104.519 233.52 94.8074 227.044 94.8074 220.089C94.8074 213.137 104.519 206.659 122.153 201.852C139.592 197.099 162.768 194.479 187.413 194.479C211.749 194.479 234.763 197.315 252.214 202.464C269.539 207.577 279.079 214.269 279.079 221.31C279.079 228.208 269.532 234.468 252.197 238.94C235.296 243.299 212.289 245.701 187.413 245.701ZM187.413 195.48C162.855 195.48 139.77 198.085 122.415 202.817C105.506 207.427 95.8063 213.723 95.8063 220.091C95.8063 226.459 105.506 232.756 122.415 237.365C139.77 242.097 162.853 244.702 187.413 244.702C212.208 244.702 235.127 242.313 251.947 237.972C268.798 233.625 278.08 227.708 278.08 221.31C278.08 214.847 268.55 208.326 251.933 203.425C234.57 198.301 211.656 195.48 187.413 195.48Z" fill="black"/>
<path d="M92.9342 210.989C92.9342 225.162 134.614 235.333 186.602 235.333C232.927 235.333 271.143 227.13 278.937 215.255C279.208 214.843 279.851 215.092 279.786 215.581L276.309 241.509C269.193 271.47 234 289.527 196.729 292.187C182.302 293.218 184.856 293.631 169.369 292.187C134.176 288.907 104.832 268.09 98.2929 240.976L92.2358 212.881C92.2337 211.924 92.9342 210.726 92.9342 210.989Z" fill="white"/>
<path d="M182.664 293.622C179.76 293.622 176.456 293.349 169.32 292.684C133.74 289.368 104.331 268.154 97.8039 241.094L91.7447 212.989C91.7362 212.955 91.7341 212.919 91.7341 212.883C91.7341 212.178 92.2463 210.453 92.9172 210.453C93.0505 210.453 93.186 210.523 93.2791 210.618C93.3722 210.711 93.4336 210.857 93.4336 210.991C93.4336 217.522 103.008 223.56 120.396 227.994C137.697 232.406 161.208 234.836 186.602 234.836C233.048 234.836 270.846 226.673 278.518 214.984C278.768 214.601 279.225 214.455 279.655 214.614C280.082 214.775 280.34 215.2 280.279 215.653L276.802 241.581C273.407 255.889 263.479 268.3 248.083 277.521C234.015 285.946 215.789 291.334 196.763 292.691C194.069 292.883 191.967 293.055 190.23 293.195C186.901 293.459 184.903 293.622 182.664 293.622ZM92.9087 213.638L98.7795 240.87C105.205 267.508 134.252 288.412 169.413 291.688C181.963 292.858 182.581 292.807 190.149 292.191C191.889 292.05 193.995 291.878 196.693 291.688C230.712 289.26 268.372 272.765 275.822 241.392L279.271 215.653C271.238 227.541 233.2 235.83 186.602 235.83C161.13 235.83 137.528 233.39 120.151 228.959C104.551 224.982 95.0695 219.613 92.9087 213.638Z" fill="black"/>
<path d="M243.207 214.549C247.32 214.549 250.654 213.251 250.654 211.651C250.654 210.051 247.32 208.754 243.207 208.754C239.094 208.754 235.76 210.051 235.76 211.651C235.76 213.251 239.094 214.549 243.207 214.549Z" fill="black"/>
<path d="M197.688 224.891C197.688 226.491 201.024 227.788 205.136 227.788C209.25 227.788 212.583 226.491 212.583 224.891C212.583 223.291 209.248 221.994 205.136 221.994C201.024 221.996 197.688 223.293 197.688 224.891Z" fill="black"/>
<path d="M170.376 205.444C170.376 207.044 173.712 208.341 177.824 208.341C181.938 208.341 185.271 207.044 185.271 205.444C185.271 203.844 181.936 202.547 177.824 202.547C173.712 202.547 170.376 203.844 170.376 205.444Z" fill="black"/>
<path d="M148.859 222.825C148.859 224.425 152.195 225.722 156.307 225.722C160.421 225.722 163.754 224.425 163.754 222.825C163.754 221.225 160.419 219.927 156.307 219.927C152.192 219.927 148.859 221.225 148.859 222.825Z" fill="black"/>
<path d="M202.839 192.898C201.762 193.702 201.605 199.711 201.288 202.303C201.299 201.309 200.41 196.947 199.324 196.682C198.238 196.418 198.414 198.375 197.58 198.703C196.748 199.031 196.403 196.202 195.576 197.228C194.748 198.255 195.599 199.489 195.263 200.229C194.926 200.97 194.052 198.735 193.294 199.903C192.537 201.072 195.106 203.199 194.306 203.569C193.504 203.939 192.861 202.215 192.452 203.243C192.044 204.272 199.415 215.622 200.075 215.184C201.652 214.138 205.017 214.623 206.875 214.987C208.731 215.349 210.454 216.202 212.122 217.093C212.556 217.325 213.099 217.558 213.512 217.287C213.885 217.042 213.925 216.483 213.722 216.087C213.518 215.691 212.723 215.44 213.345 215.093C213.965 214.745 214.845 214.851 215.882 214.695C216.073 214.665 216.276 214.631 216.412 214.494C216.795 214.108 216.249 213.48 215.722 213.351C215.195 213.224 214.177 213.131 213.927 212.648C214.115 212.178 215.262 211.962 215.743 211.808C216.223 211.653 216.621 211.059 216.513 210.566C216.314 209.649 213.334 209.516 213.165 208.796C212.996 208.075 215.878 207.952 214.397 206.481C212.793 204.89 211.44 205.956 206.367 208.5C206.228 208.564 206.094 208.636 205.961 208.71C208.096 206.24 209.18 204.661 211.423 202.352C211.802 201.963 213.237 200.443 212.655 199.343C212.073 198.242 210.657 200.64 210.649 199.747C210.636 198.435 212.589 197.391 211.954 196.238C211.32 195.084 210.238 196.782 210.001 196.259C209.764 195.736 210.858 193.823 210.249 192.881C209.639 191.94 208.202 193.664 207.466 193.65C206.729 193.635 207.375 191.69 207.174 191.383C206.799 190.814 206.251 190.922 205.724 191.349C205.195 191.777 204.937 192.96 204.374 193.688C203.8 194.422 203.917 192.096 202.839 192.898Z" fill="black"/>
<path d="M116.202 214.549C116.041 214.549 115.884 214.472 115.787 214.329C115.633 214.1 115.692 213.789 115.92 213.634C131.787 202.883 145.814 199.072 157.609 202.31C162.461 203.641 165.257 205.654 168.493 207.986C168.87 208.257 169.253 208.532 169.646 208.813C169.871 208.972 169.924 209.285 169.765 209.51C169.604 209.734 169.293 209.789 169.069 209.626C168.675 209.347 168.29 209.069 167.911 208.796C164.753 206.521 162.025 204.557 157.346 203.273C145.846 200.117 132.098 203.88 116.483 214.462C116.397 214.521 116.299 214.549 116.202 214.549Z" fill="black"/>
<path d="M204.871 221.633C196.602 221.633 188.099 218.695 183.921 217.252C182.704 216.831 181.519 216.386 180.399 215.929C180.143 215.825 180.021 215.533 180.126 215.277C180.23 215.021 180.52 214.898 180.778 215.004C181.883 215.455 183.051 215.893 184.249 216.306C190.791 218.564 208.162 224.566 217.884 216.731C220.485 214.636 222.045 213.019 223.421 211.593C223.969 211.023 224.488 210.488 225.042 209.948C225.239 209.756 225.556 209.76 225.749 209.959C225.941 210.156 225.937 210.473 225.738 210.666C225.194 211.195 224.682 211.726 224.14 212.289C222.744 213.737 221.161 215.377 218.511 217.512C214.704 220.577 209.83 221.633 204.871 221.633Z" fill="black"/>
<path d="M264.927 216.597C264.802 216.597 264.68 216.55 264.582 216.459C251.806 204.29 237.63 204.595 231.92 206.455C231.66 206.542 231.376 206.398 231.29 206.134C231.205 205.871 231.347 205.59 231.609 205.503C237.516 203.579 252.153 203.241 265.27 215.733C265.469 215.924 265.477 216.241 265.287 216.44C265.192 216.544 265.058 216.597 264.927 216.597Z" fill="black"/>
<path d="M140.887 209.549L136.464 209.147C136.157 209.12 135.852 209.211 135.611 209.403L130.616 213.399C129.937 213.943 130.051 215.005 130.828 215.395L134.553 217.257C135.003 217.482 135.545 217.401 135.909 217.052L141.602 211.596C142.341 210.889 141.905 209.64 140.887 209.549Z" fill="black"/>
<path d="M185.616 226.358L173.257 219.218C173.197 219.184 173.134 219.161 173.068 219.15L171.094 218.82C170.531 218.727 170.201 219.436 170.639 219.804L177.834 225.893C177.908 225.954 177.997 225.996 178.09 226.016L185.231 227.398C185.851 227.52 186.164 226.678 185.616 226.358Z" fill="black"/>
<path d="M250.972 220.244L240.71 218.485L232.864 221.896L239.687 226.33L251.097 221.226C251.56 221.016 251.473 220.33 250.972 220.244Z" fill="black"/>
<path d="M135.348 275.653C135.348 275.653 126.25 306.003 86.9323 306.501C44.3024 307.038 22.4763 259.845 31.1216 225.186C35.5025 207.628 44.241 204.666 44.241 204.666L135.348 275.653Z" fill="black"/>
<path d="M86.1894 307.005C65.0787 307.005 51.6609 295.685 44.0928 286.121C30.8422 269.379 25.5619 245.413 30.6369 225.064C35.0326 207.443 43.7118 204.315 44.0801 204.19C44.2388 204.137 44.4145 204.165 44.5478 204.269L135.655 275.258C135.818 275.385 135.886 275.599 135.827 275.795C135.731 276.111 133.435 283.584 126.248 291.232C119.622 298.282 107.423 306.741 86.9365 306.999C86.6889 307.003 86.437 307.005 86.1894 307.005ZM44.1626 205.238C42.7552 205.879 35.4538 209.885 31.6062 225.305C26.6032 245.362 31.8115 268.991 44.8758 285.499C52.3064 294.887 65.4808 306.004 86.1894 306.004C86.4328 306.004 86.6783 306.002 86.9238 306C107.059 305.746 119.025 297.456 125.518 290.549C131.719 283.95 134.239 277.345 134.76 275.831L44.1626 205.238Z" fill="white"/>
<path d="M128.635 284.407C128.635 284.407 101.612 310.942 63.864 271.201C26.1166 231.46 36.4487 202.701 48.8781 203.52C61.3096 204.339 81.8193 224.233 109.025 236.798C136.229 249.363 143.825 270.634 128.635 284.407Z" fill="white"/>
<path d="M105.165 293.584C104.951 293.584 104.737 293.582 104.519 293.577C90.9616 293.342 77.1608 285.929 63.4997 271.546C37.1679 243.824 33.8939 221.043 39.0917 209.956C41.2503 205.35 44.9138 202.758 48.9095 203.022C55.739 203.471 64.7102 209.401 76.0666 216.91C85.7469 223.31 96.7202 230.565 109.234 236.345C124.938 243.597 134.914 254.086 136.605 265.119C137.725 272.433 135.088 279.228 128.978 284.771C128.646 285.091 119.63 293.584 105.165 293.584ZM48.3634 204.004C44.9857 204.004 41.8852 206.354 39.9974 210.381C34.933 221.183 38.2409 243.502 64.2256 270.858C77.6962 285.04 91.26 292.348 104.538 292.578C119.158 292.818 128.195 284.138 128.286 284.052C128.29 284.047 128.294 284.043 128.301 284.039C134.154 278.731 136.686 272.24 135.617 265.273C133.979 254.577 124.21 244.363 108.815 237.255C96.2335 231.443 85.2284 224.167 75.5164 217.746C64.2827 210.32 55.4109 204.453 48.846 204.021C48.6851 204.011 48.5243 204.004 48.3634 204.004Z" fill="black"/>
<path d="M109.025 266.752C109.025 266.752 101.626 276.361 82.1706 261.171C62.7149 245.982 73.2586 231.147 90.2001 237.066C107.137 242.985 113.747 258.23 109.025 266.752Z" fill="black"/>
<path d="M105.857 255.898C105.656 255.898 105.466 255.775 105.389 255.576C102.954 249.189 96.7674 243.723 88.8395 240.95C86.7464 240.218 84.7486 239.848 82.8989 239.848C82.6237 239.848 82.3994 239.623 82.3994 239.348C82.3994 239.071 82.6237 238.849 82.8989 238.849C84.8607 238.849 86.9708 239.238 89.1697 240.006C97.3727 242.874 103.785 248.561 106.323 255.219C106.42 255.477 106.291 255.765 106.033 255.864C105.976 255.89 105.916 255.898 105.857 255.898Z" fill="white"/>
<path d="M234.89 82.0562C234.89 82.0562 216.109 92.9221 212.164 92.2834C208.22 91.6463 200.947 73.0445 189.433 77.4188C177.661 81.8902 179.172 96.1244 197.073 103.654C197.073 103.654 186.341 123.585 198.617 126.655C210.018 129.505 215.341 117.788 215.701 113.263C216.392 104.564 244.77 103.029 244.77 103.029L234.89 82.0562Z" fill="white"/>
<path d="M202.067 127.497C200.924 127.497 199.742 127.345 198.521 127.04C195.923 126.391 194.115 124.954 193.153 122.775C190.38 116.496 195.415 106.022 196.524 103.853C187.112 99.7835 181.353 93.3102 181.467 86.8889C181.544 82.4962 184.396 78.91 189.293 77.0507C197.344 73.9909 203.242 81.5925 207.551 87.1404C209.456 89.5932 211.102 91.7124 212.229 91.8952C215.351 92.3948 229.503 84.7177 234.694 81.7166C234.789 81.6613 234.905 81.6479 235.01 81.6814C235.116 81.7149 235.203 81.7904 235.25 81.891L245.13 102.862C245.186 102.981 245.179 103.12 245.112 103.234C245.045 103.348 244.924 103.418 244.793 103.427C244.513 103.442 216.754 105.041 216.099 113.297C215.857 116.341 213.552 122.039 209.188 125.177C207.035 126.721 204.651 127.497 202.067 127.497ZM192.915 77.1546C191.843 77.1546 190.73 77.3525 189.573 77.7917C184.995 79.5303 182.329 82.8517 182.257 86.904C182.171 91.7476 186.059 98.5948 197.225 103.293C197.327 103.336 197.408 103.42 197.445 103.526C197.482 103.631 197.473 103.747 197.42 103.844C197.354 103.965 190.99 115.929 193.875 122.456C194.735 124.401 196.362 125.685 198.712 126.274C202.448 127.207 205.816 126.622 208.722 124.533C212.881 121.544 215.076 116.125 215.306 113.233C215.968 104.899 239.961 102.947 244.163 102.671L234.714 82.6169C231.969 84.1879 215.867 93.2867 212.1 92.6781C210.665 92.4468 209.015 90.3192 206.924 87.6283C203.41 83.0981 198.793 77.1546 192.915 77.1546Z" fill="black"/>
<path d="M200.322 114.481C200.246 114.481 200.171 114.459 200.104 114.416C199.921 114.295 199.871 114.05 199.992 113.868C200.013 113.834 202.206 110.452 201.192 107.547C200.637 105.956 199.21 104.772 196.95 104.031C196.742 103.962 196.63 103.739 196.697 103.531C196.766 103.324 196.989 103.21 197.197 103.278C199.703 104.102 201.299 105.451 201.94 107.29C203.08 110.568 200.751 114.154 200.652 114.305C200.575 114.419 200.449 114.481 200.322 114.481Z" fill="black"/>
<path d="M225.608 84.5934C225.608 84.5934 231.602 78.5644 256.486 34.5859C266.624 16.6682 291.554 0.110272 318.52 16.3111C345.486 32.512 360.637 79.0691 331.951 103.473C303.263 127.878 259.583 110.483 248.335 108.32C238.567 106.441 232.855 106.689 232.855 106.689L234.62 99.614L228.177 95.9305L232.957 89.1202L225.608 84.5934Z" fill="black"/>
<path d="M275.769 73.9684C287.793 98.133 310.636 111.207 326.79 103.17C342.944 95.132 349.496 68.0434 337.472 43.8787C325.447 19.7124 299.4 7.62088 283.246 15.6584C267.092 23.6977 263.744 49.8038 275.769 73.9684Z" fill="white"/>
<path d="M305.434 61.4751C308.21 66.8083 312.754 69.9385 315.582 68.4664C318.412 66.9944 318.454 61.4768 315.679 56.1435C312.903 50.8103 308.359 47.6801 305.531 49.1522C302.701 50.6242 302.659 56.1419 305.434 61.4751Z" fill="black"/>
<path d="M293.894 103.833C293.812 103.833 293.73 103.808 293.658 103.754C272.303 87.8453 265.008 69.9226 262.649 57.6902C260.091 44.4217 262.631 34.7746 262.656 34.6791C262.713 34.4678 262.931 34.3404 263.142 34.4008C263.353 34.4578 263.478 34.6757 263.421 34.8853C263.395 34.9809 260.899 44.4821 263.434 57.5812C265.773 69.6661 272.997 87.3759 294.131 103.121C294.307 103.251 294.342 103.5 294.211 103.674C294.134 103.778 294.015 103.833 293.894 103.833Z" fill="white"/>
<path d="M274.697 158.201C270.178 164.755 264.817 165.877 260.982 163.233C257.148 160.589 256.291 155.178 260.81 148.626C265.328 142.073 273.51 136.858 277.346 139.502C281.18 142.146 279.215 151.649 274.697 158.201Z" fill="black"/>
<path d="M262.676 161.174C262.632 161.174 262.588 161.168 262.545 161.153C262.339 161.08 262.23 160.854 262.302 160.648C265.819 150.622 274.735 142.563 274.824 142.482C274.987 142.336 275.237 142.35 275.383 142.512C275.528 142.675 275.515 142.926 275.352 143.071C275.263 143.149 266.497 151.08 263.05 160.909C262.991 161.072 262.838 161.174 262.676 161.174Z" fill="white"/>
<path d="M291.5 159.021C290.826 166.953 286.726 170.586 282.086 170.19C277.445 169.796 274.018 165.523 274.692 157.591C275.366 149.659 279.886 141.075 284.527 141.469C289.168 141.864 292.174 151.089 291.5 159.021Z" fill="black"/>
<path d="M282.337 167.615C282.149 167.615 281.983 167.481 281.948 167.292C280.03 156.841 283.776 145.42 283.814 145.306C283.883 145.099 284.108 144.986 284.315 145.057C284.523 145.125 284.634 145.35 284.565 145.558C284.528 145.67 280.847 156.903 282.726 167.149C282.766 167.364 282.624 167.57 282.408 167.61C282.384 167.613 282.361 167.615 282.337 167.615Z" fill="white"/>
<path d="M240.312 133.139C240.312 133.139 240.107 108.774 285.829 97.9855C331.553 87.1967 348.81 92.82 362.159 66.8145L367.33 68.3972C367.33 68.3972 374.554 126.456 324.339 142.387C274.125 158.319 240.312 133.139 240.312 133.139Z" fill="white"/>
<path d="M291.232 148.036C280.027 148.036 270.566 146.215 263.385 144.118C248.756 139.844 240.161 133.52 240.078 133.456C239.979 133.383 239.918 133.267 239.918 133.143C239.917 132.888 239.932 126.831 245.612 119.368C250.819 112.529 262.007 103.201 285.741 97.5993C297.844 94.744 307.766 93.0674 316.52 91.5904C340.197 87.5917 352.08 85.5848 361.809 66.6344C361.897 66.465 362.094 66.3795 362.277 66.4365L367.448 68.0192C367.597 68.0645 367.706 68.1936 367.724 68.3495C367.743 68.4954 369.488 83.1303 365.049 99.5223C362.438 109.161 358.232 117.517 352.546 124.359C345.436 132.917 335.987 139.108 324.46 142.766C312.28 146.628 301.082 148.036 291.232 148.036ZM240.715 132.94C241.967 133.827 250.246 139.459 263.642 143.368C277.021 147.271 298.393 150.205 324.22 142.01C349.989 133.834 360.23 114.28 364.284 99.3144C368.363 84.2519 367.174 70.7035 366.965 68.6999L362.359 67.2899C352.479 86.3209 340.463 88.3495 316.649 92.3717C307.907 93.8487 297.999 95.522 285.92 98.3722C262.415 103.918 251.368 113.113 246.239 119.849C241.281 126.361 240.768 131.852 240.715 132.94Z" fill="black"/>
<path d="M291.25 148.076C284.116 148.076 277.053 147.323 270.088 145.814C269.902 145.774 269.771 145.606 269.776 145.417C269.781 145.226 269.922 145.066 270.11 145.036C281.796 143.177 286.839 134.698 285.104 119.832C284.425 114.021 285.105 110.527 287.246 108.839C290.559 106.227 296.722 108.487 304.524 111.347C317.202 115.996 332.979 121.78 345.531 110.524C358.349 99.0257 362.864 80.8197 364.394 67.5713C364.408 67.4539 364.473 67.35 364.57 67.2863C364.669 67.2226 364.79 67.2041 364.902 67.2393L367.447 68.0173C367.597 68.0625 367.706 68.1916 367.724 68.3475C367.743 68.4934 369.488 83.1283 365.048 99.5203C362.438 109.159 358.231 117.515 352.546 124.357C345.437 132.915 335.986 139.106 324.46 142.765C313.302 146.304 302.195 148.076 291.25 148.076ZM272.172 145.437C289.091 148.753 306.591 147.601 324.22 142.008C349.989 133.832 360.23 114.278 364.284 99.3124C368.363 84.25 367.174 70.7015 366.965 68.6979L365.124 68.1346C363.524 81.4769 358.909 99.5874 346.059 111.114C333.153 122.691 316.449 116.564 304.25 112.091C296.981 109.426 290.702 107.124 287.736 109.461C285.858 110.943 285.253 114.304 285.888 119.74C286.866 128.113 285.69 134.615 282.394 139.061C280.039 142.241 276.607 144.381 272.172 145.437Z" fill="black"/>
<path d="M291.232 148.036C280.027 148.036 270.566 146.215 263.385 144.118C248.756 139.844 240.161 133.52 240.078 133.456C239.979 133.383 239.918 133.267 239.918 133.143C239.917 132.888 239.932 126.831 245.612 119.368C250.819 112.529 262.007 103.201 285.741 97.5993C297.844 94.744 307.766 93.0674 316.52 91.5904C340.197 87.5917 352.08 85.5848 361.809 66.6344C361.897 66.465 362.094 66.3795 362.277 66.4365L367.448 68.0192C367.597 68.0645 367.706 68.1936 367.724 68.3495C367.743 68.4954 369.488 83.1303 365.049 99.5223C362.438 109.161 358.232 117.517 352.546 124.359C345.436 132.917 335.987 139.108 324.46 142.766C312.28 146.628 301.082 148.036 291.232 148.036ZM240.715 132.94C241.967 133.827 250.246 139.459 263.642 143.368C277.021 147.271 298.393 150.205 324.22 142.01C349.989 133.834 360.23 114.28 364.284 99.3144C368.363 84.2519 367.174 70.7035 366.965 68.6999L362.359 67.2899C352.479 86.3209 340.463 88.3495 316.649 92.3717C307.907 93.8487 297.999 95.522 285.92 98.3722C262.415 103.918 251.368 113.113 246.239 119.849C241.281 126.361 240.768 131.852 240.715 132.94Z" fill="black"/>
<path d="M279.427 143.356C279.37 143.356 279.313 143.345 279.259 143.319C279.061 143.227 278.976 142.991 279.068 142.793C283.494 133.349 283.042 124.379 277.723 116.132C273.75 109.97 268.41 106.559 268.356 106.525C268.172 106.408 268.117 106.165 268.232 105.978C268.35 105.794 268.594 105.739 268.779 105.854C268.834 105.89 274.32 109.394 278.387 115.701C282.153 121.539 285.451 131.037 279.784 143.127C279.717 143.272 279.574 143.356 279.427 143.356Z" fill="black"/>
<path d="M264.762 119.79C264.762 121.506 263.37 122.898 261.654 122.898C259.937 122.898 258.545 121.506 258.545 119.79C258.545 118.073 259.937 116.681 261.654 116.681C263.369 116.681 264.762 118.073 264.762 119.79Z" fill="black"/>
<path d="M363.14 70.8742C363.14 70.8742 343.874 62.6002 345.794 36.6685C345.794 36.6685 370.041 45.4571 365.486 64.5601C365.486 64.5601 377.938 51.4358 397.817 52.529C397.819 52.5273 392.799 77.4246 363.14 70.8742Z" fill="black"/>
<path d="M369.471 68.7992C369.23 68.7992 369.096 68.7925 369.082 68.7925C368.864 68.7807 368.697 68.593 368.71 68.375C368.722 68.1571 368.92 67.9877 369.127 68.0011C369.27 68.0062 383.397 68.6282 393.305 55.2155C393.435 55.0394 393.683 55.0026 393.859 55.1317C394.035 55.2607 394.072 55.5089 393.943 55.6849C384.705 68.1906 371.862 68.7992 369.471 68.7992Z" fill="white"/>
<path d="M359.827 66.3162C359.73 66.3162 359.631 66.281 359.556 66.2072C348.74 55.9817 348.178 42.7501 348.173 42.6177C348.167 42.3997 348.338 42.217 348.556 42.2086C348.779 42.1818 348.956 42.3729 348.965 42.5908C348.97 42.7199 349.528 55.638 360.099 65.6322C360.258 65.7814 360.265 66.0329 360.114 66.1921C360.037 66.2743 359.931 66.3162 359.827 66.3162Z" fill="white"/>
<path d="M298.677 118.515C297.051 118.758 296.754 120.966 298.233 121.684C301.89 123.457 307.072 127.562 311.937 137.048C312.221 137.601 312.502 138.136 312.784 138.656C318.53 149.302 331.892 153.175 342.5 147.359C342.5 147.359 331.097 147.607 325.705 134.763C320.563 122.514 307.875 117.145 298.677 118.515Z" fill="black"/>
<path d="M332.785 148.221C332.769 148.221 332.753 148.221 332.737 148.218C325.952 147.376 316.593 143.366 310.549 129.036C310.453 128.808 310.354 128.574 310.306 128.476C310.28 128.451 310.259 128.421 310.24 128.387C310.136 128.195 310.208 127.955 310.4 127.851C310.498 127.797 310.619 127.789 310.725 127.826C310.926 127.896 310.96 127.975 311.278 128.728C317.175 142.709 326.255 146.615 332.834 147.432C333.05 147.459 333.204 147.656 333.178 147.873C333.152 148.074 332.983 148.221 332.785 148.221ZM310.777 128.548C310.72 128.58 310.658 128.595 310.597 128.597C310.656 128.595 310.716 128.582 310.777 128.548Z" fill="white"/>
<path d="M291.944 172.465C279.264 172.465 266.644 169.632 254.864 164.007C234.09 154.087 218.424 136.669 210.748 114.964C203.075 93.2585 204.312 69.8651 214.232 49.0905C224.153 28.3159 241.571 12.6499 263.274 4.97452C284.978 -2.69922 308.373 -1.4619 329.147 8.45846C338.955 13.1428 347.657 19.5105 355.01 27.3871C355.16 27.5464 355.151 27.7979 354.99 27.9471C354.831 28.0963 354.579 28.0879 354.43 27.927C347.145 20.1225 338.524 13.8135 328.805 9.17269C286.316 -11.1174 235.238 6.94116 214.947 49.4309C194.655 91.9223 212.715 142.999 255.205 163.291C275.788 173.121 298.967 174.347 320.473 166.743C341.978 159.14 359.235 143.616 369.065 123.033C373.54 113.663 376.249 103.712 377.118 93.458C377.136 93.2401 377.326 93.0741 377.545 93.0976C377.763 93.116 377.924 93.3071 377.906 93.5251C377.029 103.875 374.294 113.917 369.778 123.375C359.857 144.15 342.439 159.817 320.736 167.491C311.34 170.812 301.624 172.465 291.944 172.465Z" fill="black"/>
<path d="M325.647 223.302C325.647 223.302 334.355 231.478 350.284 234.371C351.154 234.529 351.809 230.685 352.714 230.807C353.88 230.966 356.462 235.347 357.684 235.437C367.954 236.198 380.178 234.409 393.57 227.186C393.57 227.186 389.773 224.108 383.208 221.042C382.449 220.688 378.924 222.81 378.092 222.46C377.301 222.128 379.207 219.323 378.354 219.004C365.895 214.341 346.904 211.508 325.647 223.302Z" fill="black"/>
<path d="M310.43 223.514C310.43 223.514 323.078 253.123 360.877 258.795C361.812 258.934 362.865 254.878 363.829 254.987C364.794 255.096 368.151 260.326 369.146 260.403C373.896 260.77 378.972 260.751 384.382 260.254C384.382 260.252 362.057 218.157 310.43 223.514Z" fill="white"/>
<path d="M375.764 261.104C373.512 261.104 371.288 261.02 369.109 260.852C368.478 260.802 367.7 259.925 366.075 257.931C365.318 257.002 364.182 255.608 363.789 255.442C363.523 255.574 363.016 256.574 362.739 257.116C362.125 258.321 361.598 259.357 360.808 259.242C341.157 256.293 328.396 246.793 321.153 239.343C313.297 231.266 310.045 223.768 310.013 223.691C309.956 223.56 309.967 223.409 310.04 223.286C310.112 223.162 310.24 223.082 310.382 223.066C337.206 220.285 356.004 230.482 367.052 239.526C379.02 249.324 384.724 259.936 384.782 260.043C384.852 260.177 384.852 260.338 384.78 260.47C384.707 260.602 384.575 260.691 384.424 260.705C381.505 260.971 378.61 261.104 375.764 261.104ZM363.785 254.532C363.815 254.532 363.848 254.534 363.88 254.538C364.477 254.604 365.22 255.449 366.779 257.359C367.587 258.351 368.809 259.852 369.197 259.954C373.846 260.311 378.708 260.282 383.646 259.864C382.268 257.501 376.668 248.556 366.454 240.199C355.629 231.346 337.269 221.371 311.108 223.9C312.013 225.773 315.316 232.048 321.831 238.741C328.972 246.076 341.549 255.43 360.915 258.344C361.17 258.218 361.649 257.275 361.938 256.705C362.527 255.543 363.041 254.532 363.785 254.532Z" fill="black"/>
<path d="M336.986 236.448C336.927 236.448 336.866 236.437 336.806 236.412C331.851 234.271 326.208 231.737 320.029 228.883C319.803 228.778 319.704 228.51 319.809 228.285C319.914 228.057 320.182 227.96 320.407 228.063C326.579 230.915 332.216 233.445 337.164 235.582C337.393 235.681 337.498 235.947 337.399 236.175C337.326 236.345 337.16 236.448 336.986 236.448Z" fill="black"/>
<path d="M370.688 253.269C370.581 253.269 370.472 253.23 370.386 253.152C364.022 247.394 347.151 240.697 346.981 240.632C346.749 240.54 346.635 240.278 346.724 240.047C346.816 239.816 347.076 239.701 347.309 239.791C347.48 239.858 364.506 246.618 370.99 252.483C371.176 252.649 371.189 252.936 371.023 253.12C370.935 253.219 370.812 253.269 370.688 253.269Z" fill="black"/>
<path d="M387.569 207.615C387.389 207.615 387.219 207.508 387.148 207.33C387.057 207.099 387.169 206.835 387.401 206.743C409.74 197.848 428.614 183.565 441.987 165.436C442.134 165.236 442.417 165.193 442.618 165.341C442.819 165.488 442.861 165.771 442.713 165.972C429.241 184.236 410.229 198.624 387.733 207.583C387.68 207.606 387.624 207.615 387.569 207.615Z" fill="black"/>
<path d="M456.411 140.972C456.356 140.972 456.298 140.96 456.243 140.939C456.012 140.846 455.899 140.584 455.992 140.352C465.358 117.109 466.809 91.4841 460.185 66.249C460.122 66.0082 460.265 65.7616 460.506 65.6985C460.747 65.6354 460.994 65.7788 461.057 66.0196C467.731 91.444 466.268 117.264 456.83 140.689C456.759 140.867 456.589 140.972 456.411 140.972Z" fill="black"/>
<path d="M430.487 190.725C430.363 190.725 430.241 190.675 430.153 190.576C429.987 190.39 430 190.106 430.185 189.939C444.061 177.434 454.575 162.465 461.433 145.445C470.592 122.716 472.506 97.5558 466.967 72.682C466.914 72.4392 467.067 72.1964 467.31 72.1429C467.552 72.0913 467.793 72.2423 467.849 72.4851C473.427 97.5386 471.498 122.883 462.27 145.782C455.359 162.93 444.768 178.012 430.789 190.608C430.703 190.687 430.594 190.725 430.487 190.725Z" fill="black"/>
<path d="M381.981 213.121C381.866 213.121 381.751 213.116 381.635 213.104C380.748 213.012 379.948 212.582 379.385 211.892C378.821 211.2 378.561 210.33 378.652 209.443C378.742 208.556 379.174 207.757 379.864 207.193C380.555 206.629 381.424 206.369 382.313 206.459C383.2 206.551 383.999 206.981 384.563 207.671C385.127 208.363 385.387 209.233 385.296 210.12C385.206 211.007 384.774 211.806 384.084 212.37C383.481 212.859 382.745 213.121 381.981 213.121ZM380.086 211.318C380.497 211.823 381.08 212.137 381.726 212.204C382.375 212.271 383.009 212.079 383.512 211.668C384.017 211.257 384.33 210.674 384.397 210.028C384.464 209.38 384.273 208.745 383.862 208.242C383.451 207.738 382.868 207.424 382.222 207.357C381.572 207.292 380.939 207.482 380.436 207.893C379.931 208.304 379.618 208.887 379.551 209.533C379.484 210.181 379.675 210.816 380.086 211.318Z" fill="black"/>
<path d="M475.549 112.033C475.438 112.033 475.327 111.991 475.243 111.914C475.13 111.811 475.077 111.656 475.104 111.505L476.088 105.833C476.117 105.669 476.234 105.533 476.392 105.481C476.551 105.43 476.725 105.47 476.845 105.584L481.051 109.647C481.164 109.756 481.212 109.915 481.179 110.067C481.147 110.22 481.038 110.345 480.891 110.396C478.336 111.312 475.689 112.01 475.664 112.017C475.628 112.029 475.587 112.033 475.549 112.033ZM476.834 106.827L476.117 110.958C476.937 110.729 478.392 110.305 479.9 109.788L476.834 106.827Z" fill="black"/>
<path d="M481.21 101.977C481.158 101.977 481.105 101.968 481.053 101.949C480.948 101.908 478.457 100.955 477.969 98.5725C477.815 97.8116 478.147 96.9379 478.499 96.0146C478.86 95.0702 479.233 94.0932 479.092 93.2425C478.981 92.5753 478.312 91.8967 477.602 91.1778C476.738 90.3023 475.845 89.3942 475.714 88.2624C475.61 87.383 476.268 86.473 476.905 85.5917C477.425 84.871 477.964 84.1273 477.929 83.6035C477.887 82.9248 477.176 82.2404 476.549 81.6382C476.069 81.1775 475.656 80.7798 475.486 80.3535C475.394 80.1222 475.507 79.8584 475.738 79.7666C475.972 79.6729 476.234 79.7876 476.325 80.019C476.423 80.2637 476.805 80.6307 477.176 80.9863C477.885 81.6688 478.767 82.5157 478.832 83.5461C478.885 84.393 478.25 85.2724 477.637 86.1213C477.101 86.8611 476.549 87.6277 476.61 88.1573C476.706 88.9812 477.49 89.7765 478.247 90.5431C479.023 91.3308 479.824 92.1433 479.982 93.0915C480.164 94.1831 479.728 95.3263 479.344 96.3338C479.04 97.1329 478.751 97.8862 478.855 98.389C479.241 100.276 481.349 101.09 481.37 101.1C481.604 101.188 481.722 101.448 481.634 101.681C481.565 101.866 481.393 101.977 481.21 101.977Z" fill="black"/>
</svg>
